<svg width="490" height="234" viewBox="0 0 490 234" fill="none" xmlns="http://www.w3.org/2000/svg">
<path d="M320.096 7.85063C307.798 12.1225 289.352 18.4655 279.061 22.0254L260.355 28.4332L241.844 38.9186C207.863 58.0772 174.271 77.1063 164.109 82.8021C158.607 85.9089 147.798 91.9931 140.161 96.3296C132.523 100.601 125.921 104.161 125.533 104.161C125.08 104.161 114.53 100.666 101.973 96.3944C89.4165 92.1225 78.9311 88.6274 78.6722 88.6274C78.4133 88.6274 73.4942 91.9283 67.7336 96.006L57.3129 103.385L70.711 114.647C78.0896 120.796 84.6916 126.297 85.3388 126.88C86.698 127.98 88.0573 127.009 62.8145 142.867C57.5071 146.233 52.8469 149.21 52.4586 149.534C52.1349 149.857 64.109 150.116 80.9375 150.116H110.064L126.892 139.242C136.148 133.223 151.294 123.449 160.549 117.495C169.805 111.475 182.815 103.061 189.546 98.7245C203.527 89.663 214.271 82.7374 225.274 75.6824C229.546 72.9639 250.258 59.6953 271.229 46.1678C292.264 32.6403 316.731 16.9121 325.598 11.2811C340.161 2.09011 343.656 -0.239988 342.75 0.018912C342.556 0.0836369 332.394 3.57878 320.096 7.85063Z" fill="#28AC00"/>
<path d="M415.889 0.925059C415.889 1.05451 416.989 1.83121 418.349 2.60791C427.734 8.3037 439.578 19.1128 446.698 28.5626C452.264 35.9413 457.96 47.1387 460.161 55.0998C464.433 70.0513 463.656 86.2325 457.831 102.802C455.63 109.275 445.663 128.951 440.226 137.624C424.368 163.255 401.844 184.485 370.905 202.996C362.62 207.98 363.138 207.592 363.591 208.045C364.239 208.757 372.782 206.945 379.643 204.679C407.216 195.618 441.973 172.705 462.232 150.31C505.986 101.831 497.896 53.4817 438.931 11.7341C428.963 4.67911 427.993 4.16131 421.585 2.34901C418.413 1.50758 415.889 0.860334 415.889 0.925059Z" fill="#28AC00"/>
<path d="M4.62671 77.9477C1.13156 83.1904 0.937388 83.773 0.290138 89.0804C-0.810186 98.9833 1.26101 110.699 5.79176 119.566C11.2934 130.375 23.0086 140.99 36.9245 147.656L42.4908 150.31L56.3419 141.055L70.2578 131.734L65.274 130.31C38.8015 122.673 19.9665 109.792 12.1995 94.0642C9.35163 88.4332 8.44548 84.4849 8.44548 78.0772C8.44548 74.9704 8.38076 72.4461 8.38076 72.4461C8.31603 72.4461 6.63318 74.9057 4.62671 77.9477Z" fill="#28AC00"/>
<path d="M386.18 96.5238C383.721 102.802 382.426 105.909 379.837 111.411C377.119 117.171 376.73 117.689 374.724 118.077C372.912 118.401 367.993 117.948 367.993 117.43C367.993 117.365 370.193 112.576 372.847 106.75C375.501 100.925 377.701 96.0707 377.701 95.9413C377.701 95.8766 372.523 95.7471 366.245 95.7471H354.724L347.798 111.152C343.98 119.566 338.413 131.928 335.371 138.595L329.87 150.763H341.391H352.912L358.413 138.595L363.915 126.491L368.51 126.297C372.653 126.103 373.171 126.233 373.171 127.268C373.171 128.498 366.763 141.831 363.527 147.268L361.585 150.569L372.135 151.022C377.896 151.281 383.462 151.281 384.433 151.022C387.993 150.116 394.465 137.624 396.083 128.368C396.472 125.909 395.63 124.938 390.97 122.802C385.533 120.278 385.468 120.213 389.87 119.307C395.436 118.142 398.284 116.653 401.844 112.964C405.209 109.469 409.999 100.537 410.258 97.3652L410.387 95.4235L398.543 95.2293C386.763 95.0999 386.763 95.0999 386.18 96.5238Z" fill="#28AC00"/>
<path d="M189.416 105.715L173.559 115.553L170.387 122.673C168.575 126.556 165.08 134.388 162.491 140.084L157.831 150.44L168.834 150.634C174.918 150.699 180.096 150.569 180.355 150.31C180.614 149.987 182.944 145.068 185.533 139.242L190.193 128.757H194.789C197.313 128.757 199.837 129.016 200.29 129.339C201.067 129.857 200.42 131.734 196.601 139.89C194.012 145.326 191.941 149.987 191.941 150.246C191.941 150.569 196.73 150.763 202.491 150.763H213.106L215.436 145.715C218.025 140.148 237.183 97.8183 237.701 96.5238C237.96 95.9413 234.53 95.7471 221.649 95.8118L205.209 95.8766L189.416 105.715ZM207.863 115.294L204.303 123.255L196.73 123.449C192.264 123.579 189.352 123.385 189.481 122.996C189.74 122.284 210.97 106.75 211.229 107.074C211.358 107.203 209.869 110.893 207.863 115.294Z" fill="#28AC00"/>
<path d="M268.316 128.886C260.614 145.391 259.384 148.11 258.931 149.404C258.543 150.699 258.737 150.763 262.944 150.763H267.345L275.76 142.349C280.355 137.754 284.238 134.064 284.368 134.194C284.497 134.323 283.526 136.524 282.297 139.048C281.002 141.572 279.255 145.262 278.349 147.203L276.795 150.763H281.455H286.115L292.329 136.524L298.543 122.284H294.4H290.193L282.62 129.275C278.478 133.093 274.594 136.653 273.947 137.106C272.912 137.948 272.847 137.883 273.429 136.33C273.818 135.359 274.659 133.482 275.371 132.058C276.083 130.699 277.378 127.915 278.284 125.909L279.902 122.284H275.695H271.488L268.316 128.886Z" fill="#28AC00"/>
<path d="M234.983 125.003C234.53 126.168 231.941 131.864 229.287 137.689C226.569 143.449 224.174 148.757 223.98 149.469C223.591 150.763 223.85 150.763 237.183 150.763C244.692 150.763 250.84 150.699 250.84 150.569C250.84 150.504 251.876 147.98 253.106 145.068L255.371 139.695L252.264 138.271L249.222 136.912L253.494 136.006L257.831 135.035L260.29 129.534C261.714 126.491 262.944 123.773 263.009 123.449C263.138 123.19 257.119 122.932 249.546 122.932H235.889L234.983 125.003ZM250.064 129.857C249.934 130.181 249.416 131.475 248.899 132.77L247.993 135.229H243.591C241.196 135.229 239.19 135.1 239.19 134.906C239.19 134.712 239.772 133.352 240.484 131.993L241.779 129.404H246.051C248.381 129.404 250.193 129.598 250.064 129.857ZM245.08 141.184L243.915 143.967L239.255 144.161L234.659 144.356L236.083 141.378L237.507 138.466H241.908H246.245L245.08 141.184Z" fill="#28AC00"/>
<path d="M309.222 127.074C306.245 129.339 303.268 131.669 302.62 132.381C301.585 133.417 294.206 149.21 294.206 150.375C294.206 150.569 296.213 150.763 298.672 150.763H303.138L305.274 145.909L307.475 141.055H311.552C315.242 141.055 315.565 141.184 315.047 142.155C314.724 142.802 313.753 144.744 312.976 146.556C312.2 148.304 311.423 149.987 311.229 150.246C311.099 150.569 313.106 150.763 315.695 150.763H320.484L324.497 141.831C326.633 136.912 329.481 130.699 330.711 127.915L332.976 122.932L323.785 122.996L314.594 123.061L309.222 127.074ZM319.449 132.317L317.313 137.171H312.782C308.769 137.171 308.316 137.042 309.093 136.265C311.035 134.388 321.067 126.945 321.326 127.203C321.455 127.333 320.614 129.598 319.449 132.317Z" fill="#28AC00"/>
<path d="M136.277 176.459C133.947 181.767 129.869 190.828 119.449 213.87C118.672 215.618 117.572 217.883 117.119 218.854L116.148 220.666H124.497H132.782L139.384 205.909C143.009 197.818 146.31 190.763 146.698 190.246C147.345 189.275 147.28 194.323 146.18 213.352L145.792 220.666L152.523 220.602H159.255L166.374 211.216C181.649 191.022 187.733 183.19 187.928 183.449C188.057 183.579 184.497 191.799 180.031 201.702C175.565 211.605 171.876 219.954 171.876 220.213C171.876 220.472 175.371 220.602 179.643 220.537L187.475 220.343L191.682 210.957C194.012 205.779 197.636 197.754 199.708 193.158C201.779 188.498 204.95 181.443 206.763 177.43L209.999 170.181H197.248H184.497L176.083 180.666C162.944 196.977 161.261 198.919 161.002 198.077C160.873 197.624 161.067 192.576 161.455 186.815C161.844 180.99 162.167 174.906 162.167 173.223V170.181H150.646H139.125L136.277 176.459Z" fill="#28AC00"/>
<path d="M221.196 172.576C219.319 176.2 199.708 219.89 199.708 220.278C199.708 220.472 211.358 220.666 225.662 220.666C246.18 220.666 251.552 220.86 251.294 221.443C251.099 221.896 249.934 224.744 248.64 227.721L246.31 233.093L254.206 232.64C258.607 232.381 262.362 231.993 262.685 231.734C262.944 231.475 264.562 228.11 266.31 224.161C268.057 220.278 270.258 215.424 271.164 213.352L272.847 209.663H268.64H264.497L266.763 204.614C268.057 201.896 269.675 198.336 270.387 196.718C271.164 195.1 274.141 188.498 277.054 181.961L282.426 170.181H272.976L263.462 170.246L254.983 189.145L246.439 208.045L235.371 208.239C229.287 208.304 224.303 208.304 224.303 208.11C224.303 207.915 230.84 193.223 235.177 183.773C240.161 172.77 241.132 170.634 241.132 170.44C241.132 170.31 236.925 170.181 231.747 170.181H222.361L221.196 172.576Z" fill="#28AC00"/>
<path d="M296.989 173.223C296.212 174.97 291.229 186.103 285.792 198.013C280.355 209.922 275.824 220.084 275.63 220.537C275.371 221.184 277.442 221.313 285.468 221.184L295.63 220.99L300.096 210.958C306.115 197.43 305.792 197.948 307.216 198.724C309.287 199.76 309.934 204.097 309.481 213.029L309.028 221.313H319.966C332.653 221.313 331.746 221.896 331.746 214.129C331.746 208.627 329.157 203.191 324.562 199.048C322.814 197.495 321.39 196.071 321.39 195.877C321.39 195.682 322.232 195.359 323.332 195.1C325.921 194.517 331.941 190.44 336.601 186.103C340.42 182.543 344.756 179.89 346.763 179.89C347.928 179.89 348.575 177.365 348.575 173.029V170.181H340.678L332.717 170.246L330.581 173.676C327.021 179.631 319.449 189.016 317.636 189.663C315.565 190.44 309.999 190.181 310.193 189.275C310.258 188.886 312.199 184.485 314.53 179.372L318.737 170.181H308.51H298.348L296.989 173.223Z" fill="#28AC00"/>
<path d="M89.3516 196.847C89.2221 197.301 88.3807 200.213 87.5393 203.32L85.9211 209.016H99.9665H113.947L115.5 203.32C116.342 200.213 117.183 197.301 117.377 196.847C117.572 196.265 114.594 196.071 103.656 196.071C92.9762 196.071 89.5457 196.265 89.3516 196.847Z" fill="#28AC00"/>
</svg>
